<?xml version="1.0" standalone="no"?><!DOCTYPE svg PUBLIC "-//W3C//DTD SVG 1.1//EN" "http://www.w3.org/Graphics/SVG/1.1/DTD/svg11.dtd"><svg t="1617538457192" class="icon" viewBox="0 0 1024 1024" version="1.1" xmlns="http://www.w3.org/2000/svg" p-id="8825" xmlns:xlink="http://www.w3.org/1999/xlink" width="200" height="200"><defs><style type="text/css"></style></defs><path d="M971.925333 226.496v746.325333H52.074667V226.496h919.850666m0-42.666667H52.074667c-23.466667 0-42.666667 19.2-42.666667 42.666667v746.325333c0 23.488 19.2 42.666667 42.666667 42.666667h919.850666c23.488 0 42.666667-19.178667 42.666667-42.666667V226.496c0-23.466667-19.221333-42.666667-42.666667-42.666667z" p-id="8826"></path><path d="M769.045333 225.301333h-42.666666C726.378667 131.648 630.208 55.466667 512 55.466667s-214.378667 76.181333-214.378667 169.834666h-42.666666C254.954667 108.117333 370.261333 12.8 512 12.8s257.045333 95.317333 257.045333 212.501333zM63.232 456.426667h897.578667v42.666666H63.232z" p-id="8827"></path><path d="M512 650.133333a21.333333 21.333333 0 0 1-21.333333-21.333333v-223.786667a21.333333 21.333333 0 0 1 42.666666 0v223.786667a21.333333 21.333333 0 0 1-21.333333 21.333333z" p-id="8828"></path></svg>